<?xml version="1.0" encoding="UTF-8" standalone="no"?>
<svg
   width="994.27722"
   height="392.91336"
   viewBox="0 0 994.27724 392.91337"
   version="1.2"
   id="svg973"
   sodipodi:docname="test-1.svg"
   inkscape:version="1.1 (c68e22c387, 2021-05-23)"
   xmlns:inkscape="http://www.inkscape.org/namespaces/inkscape"
   xmlns:sodipodi="http://sodipodi.sourceforge.net/DTD/sodipodi-0.dtd"
   xmlns="http://www.w3.org/2000/svg"
   xmlns:svg="http://www.w3.org/2000/svg"
   xmlns:rdf="http://www.w3.org/1999/02/22-rdf-syntax-ns#"
   xmlns:cc="http://creativecommons.org/ns#"
   xmlns:dc="http://purl.org/dc/elements/1.1/">
  <defs
     id="defs977" />
  <sodipodi:namedview
     id="namedview975"
     pagecolor="#505050"
     bordercolor="#ffffff"
     borderopacity="1"
     inkscape:pageshadow="0"
     inkscape:pageopacity="0"
     inkscape:pagecheckerboard="1"
     showgrid="false"
     fit-margin-top="100"
     fit-margin-left="100"
     fit-margin-right="100"
     fit-margin-bottom="100"
     inkscape:zoom="0.55380287"
     inkscape:cx="398.15612"
     inkscape:cy="185.08391"
     inkscape:window-width="1920"
     inkscape:window-height="1013"
     inkscape:window-x="-9"
     inkscape:window-y="-9"
     inkscape:window-maximized="1"
     inkscape:current-layer="svg973" />
  <title
     id="title701">Untitled</title>
  <desc
     id="desc703">Generated by MuseScore 3.6.2</desc>
  <polyline
     class="StaffLines"
     fill="none"
     stroke="#000000"
     stroke-width="2.73"
     stroke-linejoin="bevel"
     points="212.598,1069.57 2763.78,1069.57"
     id="polyline715"
     transform="matrix(0.31133694,0,0,1,33.810389,-933.59413)" />
  <polyline
     class="StaffLines"
     fill="none"
     stroke="#000000"
     stroke-width="2.73"
     stroke-linejoin="bevel"
     points="212.598,1094.37 2763.78,1094.37"
     id="polyline717"
     transform="matrix(0.31133694,0,0,1,33.810389,-933.59413)" />
  <polyline
     class="StaffLines"
     fill="none"
     stroke="#000000"
     stroke-width="2.73"
     stroke-linejoin="bevel"
     points="212.598,1119.17 2763.78,1119.17"
     id="polyline719"
     transform="matrix(0.31133694,0,0,1,33.810389,-933.59413)" />
  <polyline
     class="StaffLines"
     fill="none"
     stroke="#000000"
     stroke-width="2.73"
     stroke-linejoin="bevel"
     points="212.598,1143.97 2763.78,1143.97"
     id="polyline721"
     transform="matrix(0.31133694,0,0,1,33.810389,-933.59413)" />
  <polyline
     class="StaffLines"
     fill="none"
     stroke="#000000"
     stroke-width="2.73"
     stroke-linejoin="bevel"
     points="212.598,1168.77 2763.78,1168.77"
     id="polyline723"
     transform="matrix(0.31133694,0,0,1,33.810389,-933.59413)" />
  <path
     class="Accidental"
     d="m 265.24605,239.73287 c -0.58905,-3.85952 -2.976,-7.533 -8.02905,-7.533 -4.96,0 -7.843,3.06895 -8.339,3.67348 l 0.403,-31.85253 c 0,-0.79042 -0.589,-1.37947 -1.395,-1.37947 h -1.178 c -0.806,0 -1.395,0.58905 -1.395,1.37947 l 0.496,59.62853 c 0,0.79052 0.589,1.37957 1.395,1.37957 0.186,0 0.589,-0.0931 0.7905,-0.186 0.3875,-0.20157 6.8355,-3.37905 12.1985,-9.42405 3.76652,-4.278 5.25452,-9.1295 5.25452,-13.206 0,-0.8835 -0.0931,-1.674 -0.20147,-2.48 m -6.83558,3.875 c 0,1.488 -0.40295,6.045 -2.88295,9.827 -1.68952,2.573 -5.05302,5.25448 -6.94402,6.74248 l 0.2945,-19.34398 c 0.2015,-0.899 1.6895,-3.76655 5.6575,-3.76655 3.58055,0 3.87497,3.36355 3.87497,5.45605 v 1.085"
     id="path867"
     style="stroke-width:0.992" />
  <path
     class="Accidental"
     d="m 277.40305,190.13287 c -0.58905,-3.85952 -2.976,-7.533 -8.02905,-7.533 -4.96,0 -7.843,3.06895 -8.339,3.67348 l 0.403,-31.85253 c 0,-0.79042 -0.589,-1.37947 -1.395,-1.37947 h -1.178 c -0.806,0 -1.395,0.58905 -1.395,1.37947 l 0.496,59.62853 c 0,0.79052 0.589,1.37957 1.395,1.37957 0.186,0 0.589,-0.0931 0.7905,-0.186 0.3875,-0.20157 6.8355,-3.37905 12.1985,-9.42405 3.76652,-4.278 5.25452,-9.1295 5.25452,-13.206 0,-0.8835 -0.0931,-1.674 -0.20147,-2.48 m -6.83558,3.875 c 0,1.488 -0.40295,6.045 -2.88295,9.827 -1.68952,2.573 -5.05302,5.25448 -6.94402,6.74248 l 0.2945,-19.34398 c 0.2015,-0.899 1.6895,-3.76655 5.6575,-3.76655 3.58055,0 3.87497,3.36355 3.87497,5.45605 v 1.085"
     id="path869"
     style="stroke-width:0.992" />
  <path
     class="Accidental"
     d="m 756.18601,249.46687 c 0.60453,-0.1085 1.10053,-0.806 1.10053,-1.395 v -5.859 c 0,-0.7905 -0.60453,-1.3795 -1.39505,-1.3795 h -0.20148 l -3.27052,0.6975 v -14.787 h -2.77453 v 15.376 l -8.83497,1.7825 v -13.981 h -2.7745 v 14.5855 l -3.875,0.7905 c -0.589,0.093 -1.085,0.7905 -1.085,1.3795 v 0.2015 5.7505 -0.186 c 0,0.7905 0.589,1.3795 1.395,1.3795 h 0.2945 l 3.2705,-0.6975 v 16.368 l -3.875,0.806 c -0.589,0.093 -1.085,0.7905 -1.085,1.3795 v 5.7505 c 0,0.806 0.589,1.395 1.395,1.395 h 0.2945 l 3.2705,-0.6975 v 14.787 h 2.7745 v -15.376 l 8.83497,-1.7825 v 13.981 h 2.77453 v -14.5855 l 3.76652,-0.6975 c 0.60453,-0.093 1.10053,-0.7905 1.10053,-1.3795 v -5.859 c 0,-0.7905 -0.60453,-1.3795 -1.39505,-1.3795 h -0.20148 l -3.27052,0.682 v -16.368 l 3.76652,-0.682 m -15.37602,19.53 v -16.461 l 8.83497,-1.7825 v 16.368 l -8.83497,1.8755"
     id="path871"
     style="stroke-width:0.992" />
  <path
     class="Accidental"
     d="m 726.53601,224.66687 c 0.60453,-0.1085 1.10053,-0.806 1.10053,-1.395 v -5.859 c 0,-0.7905 -0.60453,-1.3795 -1.39505,-1.3795 h -0.20148 l -3.27052,0.6975 v -14.787 h -2.77453 v 15.376 l -8.83497,1.7825 v -13.981 h -2.7745 v 14.5855 l -3.875,0.7905 c -0.589,0.093 -1.085,0.7905 -1.085,1.3795 v 0.2015 5.7505 -0.186 c 0,0.7905 0.589,1.3795 1.395,1.3795 h 0.2945 l 3.2705,-0.6975 v 16.368 l -3.875,0.806 c -0.589,0.093 -1.085,0.7905 -1.085,1.3795 v 5.7505 c 0,0.806 0.589,1.395 1.395,1.395 h 0.2945 l 3.2705,-0.6975 v 14.787 h 2.7745 v -15.376 l 8.83497,-1.7825 v 13.981 h 2.77453 v -14.5855 l 3.76652,-0.6975 c 0.60453,-0.093 1.10053,-0.7905 1.10053,-1.3795 v -5.859 c 0,-0.7905 -0.60453,-1.3795 -1.39505,-1.3795 h -0.20148 l -3.27052,0.682 v -16.368 l 3.76652,-0.682 m -15.37602,19.53 v -16.461 l 8.83497,-1.7825 v 16.368 l -8.83497,1.8755"
     id="path873"
     style="stroke-width:0.992" />
  <path
     class="Accidental"
     d="m 785.84601,199.86687 c 0.60453,-0.1085 1.10053,-0.806 1.10053,-1.395 v -5.859 c 0,-0.7905 -0.60453,-1.3795 -1.39505,-1.3795 h -0.20148 l -3.27052,0.6975 v -14.787 h -2.77453 v 15.376 l -8.83497,1.7825 v -13.981 h -2.7745 v 14.5855 l -3.875,0.7905 c -0.589,0.093 -1.085,0.7905 -1.085,1.3795 v 0.2015 5.7505 -0.186 c 0,0.7905 0.589,1.3795 1.395,1.3795 h 0.2945 l 3.2705,-0.6975 v 16.368 l -3.875,0.806 c -0.589,0.093 -1.085,0.7905 -1.085,1.3795 v 5.7505 c 0,0.806 0.589,1.395 1.395,1.395 h 0.2945 l 3.2705,-0.6975 v 14.787 h 2.7745 v -15.376 l 8.83497,-1.7825 v 13.981 h 2.77453 v -14.5855 l 3.76652,-0.6975 c 0.60453,-0.093 1.10053,-0.7905 1.10053,-1.3795 v -5.859 c 0,-0.7905 -0.60453,-1.3795 -1.39505,-1.3795 h -0.20148 l -3.27052,0.682 v -16.368 l 3.76652,-0.682 m -15.37602,19.53 v -16.461 l 8.83497,-1.7825 v 16.368 l -8.83497,1.8755"
     id="path875"
     style="stroke-width:0.992" />
  <polyline
     class="LedgerLine"
     fill="none"
     stroke="#000000"
     stroke-width="3.97"
     stroke-linejoin="bevel"
     points="1108.33,1193.57 1162.69,1193.57"
     id="polyline877"
     transform="translate(-323.86451,-933.59413)" />
  <path
     class="Note"
     d="m 302.35747,234.09082 c -13.68647,0 -18.55347,6.94405 -18.55347,13.39205 0,6.448 4.867,13.39205 18.55347,13.39205 13.68653,0 18.44505,-6.94405 18.44505,-13.39205 0,-6.448 -4.75852,-13.39205 -18.44505,-13.39205 m -8.23042,9.02105 c -0.10853,-0.403 -0.10853,-0.7905 -0.10853,-1.1935 0,-0.7905 0.20148,-1.581 0.60453,-2.2785 0.682,-0.992 1.87547,-1.6895 3.36347,-1.984 1.28653,-0.29452 1.984,-0.496 4.57253,-0.496 h 0.0929 c 3.968,0 5.25452,3.6735 6.35505,7.44 l 0.29442,0.992 c 0.79053,2.573 1.19358,4.75851 1.19358,6.448 0,1.19351 -0.20158,2.27851 -0.60453,3.069 -0.58905,1.10051 -1.58105,1.798 -3.27052,2.18551 -0.89895,0.20149 -2.38695,0.29454 -2.38695,0.29454 -0.496,0 -0.88358,0.10843 -1.28653,0.10843 -3.17747,0 -5.16147,-1.19348 -6.54105,-5.45597 -1.19347,-3.67351 -1.39495,-4.75851 -2.27842,-9.12951"
     id="path879"
     style="stroke-width:0.992" />
  <path
     class="Note"
     d="m 336.62847,221.69082 c -13.68647,0 -18.55347,6.94405 -18.55347,13.39205 0,6.448 4.867,13.39205 18.55347,13.39205 13.68653,0 18.44505,-6.94405 18.44505,-13.39205 0,-6.448 -4.75852,-13.39205 -18.44505,-13.39205 m -8.23042,9.02105 c -0.10853,-0.403 -0.10853,-0.7905 -0.10853,-1.1935 0,-0.7905 0.20148,-1.581 0.60453,-2.2785 0.682,-0.992 1.87547,-1.6895 3.36347,-1.984 1.28653,-0.29452 1.984,-0.496 4.57253,-0.496 h 0.0929 c 3.968,0 5.25452,3.6735 6.35505,7.44 l 0.29442,0.992 c 0.79053,2.573 1.19358,4.75851 1.19358,6.448 0,1.19351 -0.20158,2.27851 -0.60453,3.069 -0.58905,1.10051 -1.58105,1.798 -3.27052,2.18551 -0.89895,0.20149 -2.38695,0.29454 -2.38695,0.29454 -0.496,0 -0.88358,0.10843 -1.28653,0.10843 -3.17747,0 -5.16147,-1.19348 -6.54105,-5.45597 -1.19347,-3.67351 -1.39495,-4.75851 -2.27842,-9.12951"
     id="path881"
     style="stroke-width:0.992" />
  <path
     class="Note"
     d="m 302.35747,184.49082 c -13.68647,0 -18.55347,6.94405 -18.55347,13.39205 0,6.448 4.867,13.39205 18.55347,13.39205 13.68653,0 18.44505,-6.94405 18.44505,-13.39205 0,-6.448 -4.75852,-13.39205 -18.44505,-13.39205 m -8.23042,9.02105 c -0.10853,-0.403 -0.10853,-0.7905 -0.10853,-1.1935 0,-0.7905 0.20148,-1.581 0.60453,-2.2785 0.682,-0.992 1.87547,-1.6895 3.36347,-1.984 1.28653,-0.29452 1.984,-0.496 4.57253,-0.496 h 0.0929 c 3.968,0 5.25452,3.6735 6.35505,7.44 l 0.29442,0.992 c 0.79053,2.573 1.19358,4.75851 1.19358,6.448 0,1.19351 -0.20158,2.27851 -0.60453,3.069 -0.58905,1.10051 -1.58105,1.798 -3.27052,2.18551 -0.89895,0.20149 -2.38695,0.29454 -2.38695,0.29454 -0.496,0 -0.88358,0.10843 -1.28653,0.10843 -3.17747,0 -5.16147,-1.19348 -6.54105,-5.45597 -1.19347,-3.67351 -1.39495,-4.75851 -2.27842,-9.12951"
     id="path883"
     style="stroke-width:0.992" />
  <path
     class="Note"
     d="m 811.69896,246.49087 c -13.68647,0 -18.55347,6.944 -18.55347,13.392 0,6.448 4.867,13.392 18.55347,13.392 13.68653,0 18.44505,-6.944 18.44505,-13.392 0,-6.448 -4.75852,-13.392 -18.44505,-13.392 m -8.23042,9.021 c -0.10853,-0.403 -0.10853,-0.7905 -0.10853,-1.1935 0,-0.7905 0.20148,-1.581 0.60453,-2.2785 0.682,-0.992 1.87547,-1.6895 3.36347,-1.984 1.28653,-0.2945 1.984,-0.496 4.57253,-0.496 h 0.0929 c 3.968,0 5.25452,3.6735 6.35505,7.44 l 0.29442,0.992 c 0.79053,2.573 1.19358,4.7585 1.19358,6.448 0,1.1935 -0.20158,2.2785 -0.60453,3.069 -0.58905,1.1005 -1.58105,1.798 -3.27052,2.1855 -0.89895,0.2015 -2.38695,0.2945 -2.38695,0.2945 -0.496,0 -0.88358,0.1085 -1.28653,0.1085 -3.17747,0 -5.16147,-1.1935 -6.54105,-5.456 -1.19347,-3.6735 -1.39495,-4.7585 -2.27842,-9.1295"
     id="path885"
     style="stroke-width:0.992" />
  <path
     class="Note"
     d="m 811.69896,221.69087 c -13.68647,0 -18.55347,6.944 -18.55347,13.392 0,6.448 4.867,13.392 18.55347,13.392 13.68653,0 18.44505,-6.944 18.44505,-13.392 0,-6.448 -4.75852,-13.392 -18.44505,-13.392 m -8.23042,9.021 c -0.10853,-0.403 -0.10853,-0.7905 -0.10853,-1.1935 0,-0.7905 0.20148,-1.581 0.60453,-2.2785 0.682,-0.992 1.87547,-1.6895 3.36347,-1.984 1.28653,-0.2945 1.984,-0.496 4.57253,-0.496 h 0.0929 c 3.968,0 5.25452,3.6735 6.35505,7.44 l 0.29442,0.992 c 0.79053,2.573 1.19358,4.7585 1.19358,6.448 0,1.1935 -0.20158,2.2785 -0.60453,3.069 -0.58905,1.1005 -1.58105,1.798 -3.27052,2.1855 -0.89895,0.2015 -2.38695,0.2945 -2.38695,0.2945 -0.496,0 -0.88358,0.1085 -1.28653,0.1085 -3.17747,0 -5.16147,-1.1935 -6.54105,-5.456 -1.19347,-3.6735 -1.39495,-4.7585 -2.27842,-9.1295"
     id="path887"
     style="stroke-width:0.992" />
  <path
     class="Note"
     d="m 811.69896,196.89087 c -13.68647,0 -18.55347,6.944 -18.55347,13.392 0,6.448 4.867,13.392 18.55347,13.392 13.68653,0 18.44505,-6.944 18.44505,-13.392 0,-6.448 -4.75852,-13.392 -18.44505,-13.392 m -8.23042,9.021 c -0.10853,-0.403 -0.10853,-0.7905 -0.10853,-1.1935 0,-0.7905 0.20148,-1.581 0.60453,-2.2785 0.682,-0.992 1.87547,-1.6895 3.36347,-1.984 1.28653,-0.2945 1.984,-0.496 4.57253,-0.496 h 0.0929 c 3.968,0 5.25452,3.6735 6.35505,7.44 l 0.29442,0.992 c 0.79053,2.573 1.19358,4.7585 1.19358,6.448 0,1.1935 -0.20158,2.2785 -0.60453,3.069 -0.58905,1.1005 -1.58105,1.798 -3.27052,2.1855 -0.89895,0.2015 -2.38695,0.2945 -2.38695,0.2945 -0.496,0 -0.88358,0.1085 -1.28653,0.1085 -3.17747,0 -5.16147,-1.1935 -6.54105,-5.456 -1.19347,-3.6735 -1.39495,-4.7585 -2.27842,-9.1295"
     id="path889"
     style="stroke-width:0.992" />
  <path
     class="Clef"
     d="m 182.69252,204.50137 c -1.22452,-5.37855 -3.844,-9.17602 -4.61905,-10.19897 -3.162,-4.24705 -7.14547,-7.068 -11.79547,-8.41653 -3.08453,-0.868 -6.06053,-0.992 -8.46295,-0.806 -1.03853,-5.96747 -2.03053,-11.79547 -2.92958,-17.20505 5.40958,-6.12242 9.00558,-11.87295 11.26853,-16.13547 3.44105,-6.52548 4.57252,-11.06695 4.63452,-11.26853 1.70495,-5.17695 2.06148,-12.81842 0.96095,-20.956 -0.992,-7.48642 -3.06895,-14.15108 -5.40947,-17.37508 C 165.33252,100.72912 164.27852,100 163.25547,100 c -1.20895,0 -3.70442,1.22512 -6.572,3.98387 -2.27842,2.16951 -5.518,6.02938 -8.06,11.99695 -2.976,7.006 -3.19295,16.41453 -2.83642,23.07958 0.372,7.22295 1.47242,12.86495 1.488,12.91147 0.0155,0.093 0.27895,1.58095 0.71295,4.12295 -0.21695,0.23253 -0.46495,0.44958 -0.71295,0.69758 -1.02305,0.992 -2.20105,2.108 -3.58053,3.48747 -0.85252,0.85253 -1.798,1.75148 -2.79,2.71253 -8.37,8.07547 -21.06452,20.30495 -21.06452,39.30797 0,4.6655 0.899,9.052 2.666,13.0355 1.5655,3.565 3.844,6.82 6.758,9.672 7.67252,7.502 18.18147,10.67948 25.172,10.52453 2.92947,-0.0775 5.54905,-0.31 7.92052,-0.75948 1.81348,9.53243 2.94495,16.50748 2.976,21.80843 0.0465,6.46357 -1.59652,10.416 -5.456,13.15957 -2.418,1.72043 -5.208,2.666 -8.27705,2.80548 -2.57295,0.124 -4.82042,-0.34105 -6.23095,-0.744 h -0.0155 c 0,0 -0.27905,-0.0931 -0.29453,-0.27905 -0.0155,-0.186 0.34095,-0.23243 0.34095,-0.23243 h 0.031 c 1.90653,-0.434 5.44053,-1.65852 7.78095,-4.92905 1.78253,-2.51095 2.65053,-7.09895 0.82158,-11.00495 -1.10053,-2.37157 -3.58053,-5.30105 -9.16053,-5.75052 -2.48,-0.20148 -4.72747,0.31 -6.71147,1.50347 -1.798,1.06948 -3.286,2.69705 -4.32453,4.68105 -2.43347,4.66548 -1.984,10.354 1.116,14.16695 2.94495,3.596 7.51748,5.89 12.91148,6.46348 0.85252,0.0931 1.68947,0.124 2.52652,0.124 4.402,0 8.75748,-1.19348 12.30695,-3.37895 3.62705,-2.55748 5.73505,-6.51 6.40158,-12.09 0.558,-4.60348 0.17042,-10.478 -1.20905,-18.49148 -0.35653,-2.07705 -0.89895,-5.084 -1.55,-8.804 5.704,-1.90652 9.82705,-5.456 13.56252,-11.26852 3.27053,-5.68853 4.20053,-11.74903 2.79,-18.01103 m -33.94505,26.00903 c -4.60347,-1.20905 -9.00547,-3.68905 -12.72547,-7.17653 -1.302,-1.20895 -3.162,-3.36349 -4.61895,-6.727 -1.34853,-3.14649 -2.01505,-6.5565 -1.95305,-10.106 0.062,-4.6655 1.364,-9.455 3.844,-14.19805 2.89852,-5.53347 7.42452,-11.02042 13.43852,-16.306 1.44148,-1.27095 2.80548,-2.542 4.07653,-3.81295 0.75947,4.23148 1.58095,8.88148 2.44895,13.71748 -3.81295,1.25547 -8.52495,4.38652 -11.60948,9.99747 -3.51852,6.51005 -3.37905,11.99705 -2.65052,15.45355 0.93,4.4175 3.44105,8.15301 6.86652,10.23003 0.93,0.558 5.022,2.666 6.85095,2.09252 0.372,-0.10852 0.63558,-0.34105 0.77505,-0.66652 0.51148,-1.16253 -0.51147,-1.798 -2.046,-2.74353 -0.60452,-0.372 -1.27105,-0.79049 -1.984,-1.31749 -3.30147,-2.46451 -4.74305,-6.882 -3.67347,-11.23751 0.57347,-2.3715 1.84442,-4.526 3.67347,-6.2155 1.64295,-1.5345 3.67348,-2.61955 6.02948,-3.25502 2.03052,11.16002 4.07652,22.22705 5.704,30.51957 0.124,0.682 0.26347,1.34843 0.38747,2.01495 -4.34,0.93 -8.64895,0.83705 -12.834,-0.26347 m 11.23758,-32.93758 c 10.26095,-0.46495 14.49242,6.91305 15.376,11.70255 0.46495,2.5265 0.46495,6.9285 -1.06958,11.11355 -1.16242,3.14643 -3.596,7.192 -8.69547,9.238 -0.062,-0.41852 -0.13948,-0.85252 -0.21695,-1.27105 -1.53453,-8.711 -3.45653,-19.623 -5.394,-30.78305 m -7.26958,-70.38547 c 1.76705,-5.68853 4.47958,-8.91253 6.46358,-10.63295 1.736,-1.50358 3.36347,-2.21653 4.278,-2.21653 0.13947,0 0.26347,0.031 0.35642,0.062 0.46505,0.13948 0.992,0.69748 1.45705,1.56548 2.294,4.24705 1.55,10.912 0.21695,15.314 -1.612,5.36305 -4.51042,10.92747 -13.23695,20.46 -0.17052,-1.10053 -0.32547,-2.13895 -0.48052,-3.11548 -1.24,-8.21505 -0.91453,-15.438 0.94547,-21.43652"
     id="path893"
     style="stroke-width:0.992" />
  <metadata
     id="metadata1619">
    <rdf:RDF>
      <cc:Work
         rdf:about="">
        <dc:title>Untitled</dc:title>
      </cc:Work>
    </rdf:RDF>
  </metadata>
</svg>
