<svg xmlns="http://www.w3.org/2000/svg" role="img" width="1129.199951171875" height="530"><rect width="1129.199951171875" height="530" fill="transparent" style="--darkreader-inline-fill:transparent;" data-darkreader-inline-fill=""></rect><g transform="translate(150,40)"><g><line opacity="1" x1="82.91999511718751" x2="82.91999511718751" y1="0" y2="450" stroke="#cecdcc" stroke-width="1" stroke-dasharray="1 2" stroke-opacity="0.4" style="--darkreader-inline-stroke:#3e4346;" data-darkreader-inline-stroke=""></line><line opacity="1" x1="248.7599853515625" x2="248.7599853515625" y1="0" y2="450" stroke="#cecdcc" stroke-width="1" stroke-dasharray="1 2" stroke-opacity="0.4" style="--darkreader-inline-stroke:#3e4346;" data-darkreader-inline-stroke=""></line><line opacity="1" x1="414.5999755859375" x2="414.5999755859375" y1="0" y2="450" stroke="#cecdcc" stroke-width="1" stroke-dasharray="1 2" stroke-opacity="0.4" style="--darkreader-inline-stroke:#3e4346;" data-darkreader-inline-stroke=""></line><line opacity="1" x1="580.4399658203124" x2="580.4399658203124" y1="0" y2="450" stroke="#cecdcc" stroke-width="1" stroke-dasharray="1 2" stroke-opacity="0.4" style="--darkreader-inline-stroke:#3e4346;" data-darkreader-inline-stroke=""></line><line opacity="1" x1="746.2799560546875" x2="746.2799560546875" y1="0" y2="450" stroke="#cecdcc" stroke-width="1" stroke-dasharray="1 2" stroke-opacity="0.4" style="--darkreader-inline-stroke:#3e4346;" data-darkreader-inline-stroke=""></line></g><g transform="translate(0,0)"><g transform="translate(82.91999511718751,0)" style="opacity: 1;"><line x1="0" x2="0" y1="0" y2="0" style="stroke: rgb(119, 119, 119); stroke-width: 1px; fill: rgb(224, 228, 228); --darkreader-inline-stroke:#9d9488; --darkreader-inline-fill:#d6d2cd;" data-darkreader-inline-stroke="" data-darkreader-inline-fill=""></line><text dominant-baseline="alphabetic" text-anchor="middle" transform="translate(0,-9) rotate(0)" style="fill: rgb(224, 228, 228); font-size: 12px; font-family: &quot;IBM Plex Mono&quot;, monospace; --darkreader-inline-fill:#d6d2cd;" data-darkreader-inline-fill="">2016</text></g><g transform="translate(248.7599853515625,0)" style="opacity: 1;"><line x1="0" x2="0" y1="0" y2="0" style="stroke: rgb(119, 119, 119); stroke-width: 1px; fill: rgb(224, 228, 228); --darkreader-inline-stroke:#9d9488; --darkreader-inline-fill:#d6d2cd;" data-darkreader-inline-stroke="" data-darkreader-inline-fill=""></line><text dominant-baseline="alphabetic" text-anchor="middle" transform="translate(0,-9) rotate(0)" style="fill: rgb(224, 228, 228); font-size: 12px; font-family: &quot;IBM Plex Mono&quot;, monospace; --darkreader-inline-fill:#d6d2cd;" data-darkreader-inline-fill="">2017</text></g><g transform="translate(414.5999755859375,0)" style="opacity: 1;"><line x1="0" x2="0" y1="0" y2="0" style="stroke: rgb(119, 119, 119); stroke-width: 1px; fill: rgb(224, 228, 228); --darkreader-inline-stroke:#9d9488; --darkreader-inline-fill:#d6d2cd;" data-darkreader-inline-stroke="" data-darkreader-inline-fill=""></line><text dominant-baseline="alphabetic" text-anchor="middle" transform="translate(0,-9) rotate(0)" style="fill: rgb(224, 228, 228); font-size: 12px; font-family: &quot;IBM Plex Mono&quot;, monospace; --darkreader-inline-fill:#d6d2cd;" data-darkreader-inline-fill="">2018</text></g><g transform="translate(580.4399658203124,0)" style="opacity: 1;"><line x1="0" x2="0" y1="0" y2="0" style="stroke: rgb(119, 119, 119); stroke-width: 1px; fill: rgb(224, 228, 228); --darkreader-inline-stroke:#9d9488; --darkreader-inline-fill:#d6d2cd;" data-darkreader-inline-stroke="" data-darkreader-inline-fill=""></line><text dominant-baseline="alphabetic" text-anchor="middle" transform="translate(0,-9) rotate(0)" style="fill: rgb(224, 228, 228); font-size: 12px; font-family: &quot;IBM Plex Mono&quot;, monospace; --darkreader-inline-fill:#d6d2cd;" data-darkreader-inline-fill="">2019</text></g><g transform="translate(746.2799560546875,0)" style="opacity: 1;"><line x1="0" x2="0" y1="0" y2="0" style="stroke: rgb(119, 119, 119); stroke-width: 1px; fill: rgb(224, 228, 228); --darkreader-inline-stroke:#9d9488; --darkreader-inline-fill:#d6d2cd;" data-darkreader-inline-stroke="" data-darkreader-inline-fill=""></line><text dominant-baseline="alphabetic" text-anchor="middle" transform="translate(0,-9) rotate(0)" style="fill: rgb(224, 228, 228); font-size: 12px; font-family: &quot;IBM Plex Mono&quot;, monospace; --darkreader-inline-fill:#d6d2cd;" data-darkreader-inline-fill="">2020</text></g><line style="stroke: transparent; stroke-width: 0px; --darkreader-inline-stroke:transparent;" x1="0" x2="829.199951171875" y1="0" y2="0" data-darkreader-inline-stroke=""></line></g><g transform="translate(0,450)"><g transform="translate(82.91999511718751,0)" style="opacity: 1;"><line x1="0" x2="0" y1="0" y2="0" style="stroke: rgb(119, 119, 119); stroke-width: 1px; fill: rgb(224, 228, 228); --darkreader-inline-stroke:#9d9488; --darkreader-inline-fill:#d6d2cd;" data-darkreader-inline-stroke="" data-darkreader-inline-fill=""></line><text dominant-baseline="text-before-edge" text-anchor="middle" transform="translate(0,9) rotate(0)" style="fill: rgb(224, 228, 228); font-size: 12px; font-family: &quot;IBM Plex Mono&quot;, monospace; --darkreader-inline-fill:#d6d2cd;" data-darkreader-inline-fill="">2016</text></g><g transform="translate(248.7599853515625,0)" style="opacity: 1;"><line x1="0" x2="0" y1="0" y2="0" style="stroke: rgb(119, 119, 119); stroke-width: 1px; fill: rgb(224, 228, 228); --darkreader-inline-stroke:#9d9488; --darkreader-inline-fill:#d6d2cd;" data-darkreader-inline-stroke="" data-darkreader-inline-fill=""></line><text dominant-baseline="text-before-edge" text-anchor="middle" transform="translate(0,9) rotate(0)" style="fill: rgb(224, 228, 228); font-size: 12px; font-family: &quot;IBM Plex Mono&quot;, monospace; --darkreader-inline-fill:#d6d2cd;" data-darkreader-inline-fill="">2017</text></g><g transform="translate(414.5999755859375,0)" style="opacity: 1;"><line x1="0" x2="0" y1="0" y2="0" style="stroke: rgb(119, 119, 119); stroke-width: 1px; fill: rgb(224, 228, 228); --darkreader-inline-stroke:#9d9488; --darkreader-inline-fill:#d6d2cd;" data-darkreader-inline-stroke="" data-darkreader-inline-fill=""></line><text dominant-baseline="text-before-edge" text-anchor="middle" transform="translate(0,9) rotate(0)" style="fill: rgb(224, 228, 228); font-size: 12px; font-family: &quot;IBM Plex Mono&quot;, monospace; --darkreader-inline-fill:#d6d2cd;" data-darkreader-inline-fill="">2018</text></g><g transform="translate(580.4399658203124,0)" style="opacity: 1;"><line x1="0" x2="0" y1="0" y2="0" style="stroke: rgb(119, 119, 119); stroke-width: 1px; fill: rgb(224, 228, 228); --darkreader-inline-stroke:#9d9488; --darkreader-inline-fill:#d6d2cd;" data-darkreader-inline-stroke="" data-darkreader-inline-fill=""></line><text dominant-baseline="text-before-edge" text-anchor="middle" transform="translate(0,9) rotate(0)" style="fill: rgb(224, 228, 228); font-size: 12px; font-family: &quot;IBM Plex Mono&quot;, monospace; --darkreader-inline-fill:#d6d2cd;" data-darkreader-inline-fill="">2019</text></g><g transform="translate(746.2799560546875,0)" style="opacity: 1;"><line x1="0" x2="0" y1="0" y2="0" style="stroke: rgb(119, 119, 119); stroke-width: 1px; fill: rgb(224, 228, 228); --darkreader-inline-stroke:#9d9488; --darkreader-inline-fill:#d6d2cd;" data-darkreader-inline-stroke="" data-darkreader-inline-fill=""></line><text dominant-baseline="text-before-edge" text-anchor="middle" transform="translate(0,9) rotate(0)" style="fill: rgb(224, 228, 228); font-size: 12px; font-family: &quot;IBM Plex Mono&quot;, monospace; --darkreader-inline-fill:#d6d2cd;" data-darkreader-inline-fill="">2020</text></g><line style="stroke: transparent; stroke-width: 0px; --darkreader-inline-stroke:transparent;" x1="0" x2="829.199951171875" y1="0" y2="0" data-darkreader-inline-stroke=""></line></g><text x="-20" y="25" text-anchor="end" dominant-baseline="central" opacity="1" style="fill: rgb(93, 255, 255); font-size: 12px; font-weight: 500; text-shadow: rgba(0, 0, 0, 0.35) 0px 2px 3px; font-family: &quot;IBM Plex Mono&quot;, monospace; --darkreader-inline-fill:#5bffff;" data-darkreader-inline-fill="">React Native</text><text x="-20" y="75" text-anchor="end" dominant-baseline="central" opacity="1" style="fill: rgb(255, 104, 239); font-size: 12px; font-weight: 500; text-shadow: rgba(0, 0, 0, 0.35) 0px 2px 3px; font-family: &quot;IBM Plex Mono&quot;, monospace; --darkreader-inline-fill:#ff62ee;" data-darkreader-inline-fill="">Native Apps</text><text x="-20" y="125" text-anchor="end" dominant-baseline="central" opacity="1" style="fill: rgb(255, 151, 151); font-size: 12px; font-weight: 500; text-shadow: rgba(0, 0, 0, 0.35) 0px 2px 3px; font-family: &quot;IBM Plex Mono&quot;, monospace; --darkreader-inline-fill:#ff8383;" data-darkreader-inline-fill="">Cordova</text><text x="849.199951171875" y="25" text-anchor="start" dominant-baseline="central" opacity="1" style="fill: rgb(103, 139, 255); font-size: 12px; font-weight: 500; text-shadow: rgba(0, 0, 0, 0.35) 0px 2px 3px; font-family: &quot;IBM Plex Mono&quot;, monospace; --darkreader-inline-fill:#62a9ff;" data-darkreader-inline-fill="">Electron</text><text x="849.199951171875" y="125" text-anchor="start" dominant-baseline="central" opacity="1" style="fill: rgb(93, 255, 255); font-size: 12px; font-weight: 500; text-shadow: rgba(0, 0, 0, 0.35) 0px 2px 3px; font-family: &quot;IBM Plex Mono&quot;, monospace; --darkreader-inline-fill:#5bffff;" data-darkreader-inline-fill="">React Native</text><text x="849.199951171875" y="175" text-anchor="start" dominant-baseline="central" opacity="1" style="fill: rgb(255, 104, 239); font-size: 12px; font-weight: 500; text-shadow: rgba(0, 0, 0, 0.35) 0px 2px 3px; font-family: &quot;IBM Plex Mono&quot;, monospace; --darkreader-inline-fill:#ff62ee;" data-darkreader-inline-fill="">Native Apps</text><text x="849.199951171875" y="425" text-anchor="start" dominant-baseline="central" opacity="1" style="fill: rgb(255, 151, 151); font-size: 12px; font-weight: 500; text-shadow: rgba(0, 0, 0, 0.35) 0px 2px 3px; font-family: &quot;IBM Plex Mono&quot;, monospace; --darkreader-inline-fill:#ff8383;" data-darkreader-inline-fill="">Cordova</text><text x="849.199951171875" y="325" text-anchor="start" dominant-baseline="central" opacity="1" style="fill: rgb(190, 255, 231); font-size: 12px; font-weight: 500; text-shadow: rgba(0, 0, 0, 0.35) 0px 2px 3px; font-family: &quot;IBM Plex Mono&quot;, monospace; --darkreader-inline-fill:#9fffdb;" data-darkreader-inline-fill="">Ionic</text><text x="849.199951171875" y="75" text-anchor="start" dominant-baseline="central" opacity="1" style="fill: rgb(255, 255, 109); font-size: 12px; font-weight: 500; text-shadow: rgba(0, 0, 0, 0.35) 0px 2px 3px; font-family: &quot;IBM Plex Mono&quot;, monospace; --darkreader-inline-fill:#ffff66;" data-darkreader-inline-fill="">Capacitor</text><text x="849.199951171875" y="375" text-anchor="start" dominant-baseline="central" opacity="1" style="fill: rgb(83, 255, 255); font-size: 12px; font-weight: 500; text-shadow: rgba(0, 0, 0, 0.35) 0px 2px 3px; font-family: &quot;IBM Plex Mono&quot;, monospace; --darkreader-inline-fill:#54ffff;" data-darkreader-inline-fill="">NW.js</text><text x="849.199951171875" y="225" text-anchor="start" dominant-baseline="central" opacity="1" style="fill: rgb(255, 201, 73); font-size: 12px; font-weight: 500; text-shadow: rgba(0, 0, 0, 0.35) 0px 2px 3px; font-family: &quot;IBM Plex Mono&quot;, monospace; --darkreader-inline-fill:#ffca4d;" data-darkreader-inline-fill="">Expo</text><text x="849.199951171875" y="275" text-anchor="start" dominant-baseline="central" opacity="1" style="fill: rgb(127, 226, 80); font-size: 12px; font-weight: 500; text-shadow: rgba(0, 0, 0, 0.35) 0px 2px 3px; font-family: &quot;IBM Plex Mono&quot;, monospace; --darkreader-inline-fill:#85e359;" data-darkreader-inline-fill="">Quasar</text><path fill="none" d="M199.00798828125,75L207.29998779296875,75C215.59198730468748,75,232.175986328125,75,248.7599853515625,75C265.343984375,75,281.9279833984375,75,301.27598225911464,66.66666666666667C320.6239811197917,58.333333333333336,342.73597981770837,41.666666666666664,362.0839786783854,33.333333333333336C381.43197753906253,25,398.01597656250004,25,414.5999755859375,25C431.18397460937496,25,447.76797363281247,25,467.11597249348955,25C486.46397135416663,25,508.5759700520832,25,527.9239689127603,25C547.2719677734374,25,563.8559667968749,25,580.4399658203124,25C597.0239648437499,25,613.6079638671874,25,632.9559627278645,25C652.3039615885417,25,674.4159602864584,25,693.7639591471353,25C713.1119580078125,25,729.69595703125,25,751.8079557291667,25C773.9199544270833,25,801.5599527994791,25,815.379951985677,25L829.199951171875,25" stroke="rgba(72, 97, 236, 1)" stroke-width="5" stroke-linecap="round" stroke-opacity="1" style="pointer-events: none; --darkreader-inline-fill:none; --darkreader-inline-stroke:#5193ed;" data-darkreader-inline-fill="" data-darkreader-inline-stroke=""></path><path fill="none" stroke="red" stroke-opacity="0" stroke-width="50" d="M199.00798828125,75L207.29998779296875,75C215.59198730468748,75,232.175986328125,75,248.7599853515625,75C265.343984375,75,281.9279833984375,75,301.27598225911464,66.66666666666667C320.6239811197917,58.333333333333336,342.73597981770837,41.666666666666664,362.0839786783854,33.333333333333336C381.43197753906253,25,398.01597656250004,25,414.5999755859375,25C431.18397460937496,25,447.76797363281247,25,467.11597249348955,25C486.46397135416663,25,508.5759700520832,25,527.9239689127603,25C547.2719677734374,25,563.8559667968749,25,580.4399658203124,25C597.0239648437499,25,613.6079638671874,25,632.9559627278645,25C652.3039615885417,25,674.4159602864584,25,693.7639591471353,25C713.1119580078125,25,729.69595703125,25,751.8079557291667,25C773.9199544270833,25,801.5599527994791,25,815.379951985677,25L829.199951171875,25" stroke-linecap="butt" style="--darkreader-inline-fill:none; --darkreader-inline-stroke:#ff1a1a;" data-darkreader-inline-fill="" data-darkreader-inline-stroke=""></path><path fill="none" d="M0,25L13.819999186197919,25C27.639998372395837,25,55.279996744791674,25,77.39199544270834,25C99.50399414062501,25,116.0879931640625,25,135.43599202473956,25C154.78399088541667,25,176.89598958333332,25,196.2439884440104,25C215.59198730468748,25,232.175986328125,25,248.7599853515625,25C265.343984375,25,281.9279833984375,25,301.27598225911464,33.333333333333336C320.6239811197917,41.666666666666664,342.73597981770837,58.333333333333336,362.0839786783854,66.66666666666667C381.43197753906253,75,398.01597656250004,75,414.5999755859375,75C431.18397460937496,75,447.76797363281247,75,467.11597249348955,75C486.46397135416663,75,508.5759700520832,75,527.9239689127603,75C547.2719677734374,75,563.8559667968749,75,580.4399658203124,75C597.0239648437499,75,613.6079638671874,75,632.9559627278645,83.33333333333333C652.3039615885417,91.66666666666667,674.4159602864584,108.33333333333333,693.7639591471353,116.66666666666667C713.1119580078125,125,729.69595703125,125,751.8079557291667,125C773.9199544270833,125,801.5599527994791,125,815.379951985677,125L829.199951171875,125" stroke="rgba(65, 199, 199, 1)" stroke-width="5" stroke-linecap="round" stroke-opacity="1" style="pointer-events: none; --darkreader-inline-fill:none; --darkreader-inline-stroke:#53cccc;" data-darkreader-inline-fill="" data-darkreader-inline-stroke=""></path><path fill="none" stroke="red" stroke-opacity="0" stroke-width="50" d="M0,25L13.819999186197919,25C27.639998372395837,25,55.279996744791674,25,77.39199544270834,25C99.50399414062501,25,116.0879931640625,25,135.43599202473956,25C154.78399088541667,25,176.89598958333332,25,196.2439884440104,25C215.59198730468748,25,232.175986328125,25,248.7599853515625,25C265.343984375,25,281.9279833984375,25,301.27598225911464,33.333333333333336C320.6239811197917,41.666666666666664,342.73597981770837,58.333333333333336,362.0839786783854,66.66666666666667C381.43197753906253,75,398.01597656250004,75,414.5999755859375,75C431.18397460937496,75,447.76797363281247,75,467.11597249348955,75C486.46397135416663,75,508.5759700520832,75,527.9239689127603,75C547.2719677734374,75,563.8559667968749,75,580.4399658203124,75C597.0239648437499,75,613.6079638671874,75,632.9559627278645,83.33333333333333C652.3039615885417,91.66666666666667,674.4159602864584,108.33333333333333,693.7639591471353,116.66666666666667C713.1119580078125,125,729.69595703125,125,751.8079557291667,125C773.9199544270833,125,801.5599527994791,125,815.379951985677,125L829.199951171875,125" stroke-linecap="butt" style="--darkreader-inline-fill:none; --darkreader-inline-stroke:#ff1a1a;" data-darkreader-inline-fill="" data-darkreader-inline-stroke=""></path><path fill="none" d="M0,75L13.819999186197919,75C27.639998372395837,75,55.279996744791674,75,77.39199544270834,75C99.50399414062501,75,116.0879931640625,75,135.43599202473956,83.33333333333333C154.78399088541667,91.66666666666667,176.89598958333332,108.33333333333333,196.2439884440104,116.66666666666667C215.59198730468748,125,232.175986328125,125,248.7599853515625,125C265.343984375,125,281.9279833984375,125,301.27598225911464,125C320.6239811197917,125,342.73597981770837,125,362.0839786783854,125C381.43197753906253,125,398.01597656250004,125,414.5999755859375,125C431.18397460937496,125,447.76797363281247,125,467.11597249348955,125C486.46397135416663,125,508.5759700520832,125,527.9239689127603,125C547.2719677734374,125,563.8559667968749,125,580.4399658203124,125C597.0239648437499,125,613.6079638671874,125,632.9559627278645,133.33333333333334C652.3039615885417,141.66666666666666,674.4159602864584,158.33333333333334,693.7639591471353,166.66666666666666C713.1119580078125,175,729.69595703125,175,751.8079557291667,175C773.9199544270833,175,801.5599527994791,175,815.379951985677,175L829.199951171875,175" stroke="rgba(246, 73, 167, 1)" stroke-width="5" stroke-linecap="round" stroke-opacity="1" style="pointer-events: none; --darkreader-inline-fill:none; --darkreader-inline-stroke:#f64faa;" data-darkreader-inline-fill="" data-darkreader-inline-stroke=""></path><path fill="none" stroke="red" stroke-opacity="0" stroke-width="50" d="M0,75L13.819999186197919,75C27.639998372395837,75,55.279996744791674,75,77.39199544270834,75C99.50399414062501,75,116.0879931640625,75,135.43599202473956,83.33333333333333C154.78399088541667,91.66666666666667,176.89598958333332,108.33333333333333,196.2439884440104,116.66666666666667C215.59198730468748,125,232.175986328125,125,248.7599853515625,125C265.343984375,125,281.9279833984375,125,301.27598225911464,125C320.6239811197917,125,342.73597981770837,125,362.0839786783854,125C381.43197753906253,125,398.01597656250004,125,414.5999755859375,125C431.18397460937496,125,447.76797363281247,125,467.11597249348955,125C486.46397135416663,125,508.5759700520832,125,527.9239689127603,125C547.2719677734374,125,563.8559667968749,125,580.4399658203124,125C597.0239648437499,125,613.6079638671874,125,632.9559627278645,133.33333333333334C652.3039615885417,141.66666666666666,674.4159602864584,158.33333333333334,693.7639591471353,166.66666666666666C713.1119580078125,175,729.69595703125,175,751.8079557291667,175C773.9199544270833,175,801.5599527994791,175,815.379951985677,175L829.199951171875,175" stroke-linecap="butt" style="--darkreader-inline-fill:none; --darkreader-inline-stroke:#ff1a1a;" data-darkreader-inline-fill="" data-darkreader-inline-stroke=""></path><path fill="none" d="M0,125L13.819999186197919,125C27.639998372395837,125,55.279996744791674,125,77.39199544270834,125C99.50399414062501,125,116.0879931640625,125,135.43599202473956,141.66666666666666C154.78399088541667,158.33333333333334,176.89598958333332,191.66666666666666,196.2439884440104,208.33333333333334C215.59198730468748,225,232.175986328125,225,248.7599853515625,225C265.343984375,225,281.9279833984375,225,301.27598225911464,225C320.6239811197917,225,342.73597981770837,225,362.0839786783854,225C381.43197753906253,225,398.01597656250004,225,414.5999755859375,225C431.18397460937496,225,447.76797363281247,225,467.11597249348955,241.66666666666666C486.46397135416663,258.3333333333333,508.5759700520832,291.6666666666667,527.9239689127603,308.3333333333333C547.2719677734374,325,563.8559667968749,325,580.4399658203124,325C597.0239648437499,325,613.6079638671874,325,632.9559627278645,341.6666666666667C652.3039615885417,358.3333333333333,674.4159602864584,391.6666666666667,693.7639591471353,408.3333333333333C713.1119580078125,425,729.69595703125,425,751.8079557291667,425C773.9199544270833,425,801.5599527994791,425,815.379951985677,425L829.199951171875,425" stroke="rgba(254, 106, 106, 1)" stroke-width="5" stroke-linecap="round" stroke-opacity="1" style="pointer-events: none; --darkreader-inline-fill:none; --darkreader-inline-stroke:#fe6464;" data-darkreader-inline-fill="" data-darkreader-inline-stroke=""></path><path fill="none" stroke="red" stroke-opacity="0" stroke-width="50" d="M0,125L13.819999186197919,125C27.639998372395837,125,55.279996744791674,125,77.39199544270834,125C99.50399414062501,125,116.0879931640625,125,135.43599202473956,141.66666666666666C154.78399088541667,158.33333333333334,176.89598958333332,191.66666666666666,196.2439884440104,208.33333333333334C215.59198730468748,225,232.175986328125,225,248.7599853515625,225C265.343984375,225,281.9279833984375,225,301.27598225911464,225C320.6239811197917,225,342.73597981770837,225,362.0839786783854,225C381.43197753906253,225,398.01597656250004,225,414.5999755859375,225C431.18397460937496,225,447.76797363281247,225,467.11597249348955,241.66666666666666C486.46397135416663,258.3333333333333,508.5759700520832,291.6666666666667,527.9239689127603,308.3333333333333C547.2719677734374,325,563.8559667968749,325,580.4399658203124,325C597.0239648437499,325,613.6079638671874,325,632.9559627278645,341.6666666666667C652.3039615885417,358.3333333333333,674.4159602864584,391.6666666666667,693.7639591471353,408.3333333333333C713.1119580078125,425,729.69595703125,425,751.8079557291667,425C773.9199544270833,425,801.5599527994791,425,815.379951985677,425L829.199951171875,425" stroke-linecap="butt" style="--darkreader-inline-fill:none; --darkreader-inline-stroke:#ff1a1a;" data-darkreader-inline-fill="" data-darkreader-inline-stroke=""></path><path fill="none" d="M199.00798828125,175L207.29998779296875,175C215.59198730468748,175,232.175986328125,175,248.7599853515625,175C265.343984375,175,281.9279833984375,175,301.27598225911464,175C320.6239811197917,175,342.73597981770837,175,362.0839786783854,175C381.43197753906253,175,398.01597656250004,175,414.5999755859375,175C431.18397460937496,175,447.76797363281247,175,467.11597249348955,183.33333333333334C486.46397135416663,191.66666666666666,508.5759700520832,208.33333333333334,527.9239689127603,216.66666666666666C547.2719677734374,225,563.8559667968749,225,580.4399658203124,225C597.0239648437499,225,613.6079638671874,225,632.9559627278645,241.66666666666666C652.3039615885417,258.3333333333333,674.4159602864584,291.6666666666667,693.7639591471353,308.3333333333333C713.1119580078125,325,729.69595703125,325,751.8079557291667,325C773.9199544270833,325,801.5599527994791,325,815.379951985677,325L829.199951171875,325" stroke="rgba(133, 235, 162, 1)" stroke-width="5" stroke-linecap="round" stroke-opacity="1" style="pointer-events: none; --darkreader-inline-fill:none; --darkreader-inline-stroke:#7eea9c;" data-darkreader-inline-fill="" data-darkreader-inline-stroke=""></path><path fill="none" stroke="red" stroke-opacity="0" stroke-width="50" d="M199.00798828125,175L207.29998779296875,175C215.59198730468748,175,232.175986328125,175,248.7599853515625,175C265.343984375,175,281.9279833984375,175,301.27598225911464,175C320.6239811197917,175,342.73597981770837,175,362.0839786783854,175C381.43197753906253,175,398.01597656250004,175,414.5999755859375,175C431.18397460937496,175,447.76797363281247,175,467.11597249348955,183.33333333333334C486.46397135416663,191.66666666666666,508.5759700520832,208.33333333333334,527.9239689127603,216.66666666666666C547.2719677734374,225,563.8559667968749,225,580.4399658203124,225C597.0239648437499,225,613.6079638671874,225,632.9559627278645,241.66666666666666C652.3039615885417,258.3333333333333,674.4159602864584,291.6666666666667,693.7639591471353,308.3333333333333C713.1119580078125,325,729.69595703125,325,751.8079557291667,325C773.9199544270833,325,801.5599527994791,325,815.379951985677,325L829.199951171875,325" stroke-linecap="butt" style="--darkreader-inline-fill:none; --darkreader-inline-stroke:#ff1a1a;" data-darkreader-inline-fill="" data-darkreader-inline-stroke=""></path><path fill="none" d="M696.527958984375,75L704.8199584960938,75C713.1119580078125,75,729.69595703125,75,751.8079557291667,75C773.9199544270833,75,801.5599527994791,75,815.379951985677,75L829.199951171875,75" stroke="rgba(251, 243, 76, 1)" stroke-width="5" stroke-linecap="round" stroke-opacity="1" style="pointer-events: none; --darkreader-inline-fill:none; --darkreader-inline-stroke:#fbf350;" data-darkreader-inline-fill="" data-darkreader-inline-stroke=""></path><path fill="none" stroke="red" stroke-opacity="0" stroke-width="50" d="M696.527958984375,75L704.8199584960938,75C713.1119580078125,75,729.69595703125,75,751.8079557291667,75C773.9199544270833,75,801.5599527994791,75,815.379951985677,75L829.199951171875,75" stroke-linecap="butt" style="--darkreader-inline-fill:none; --darkreader-inline-stroke:#ff1a1a;" data-darkreader-inline-fill="" data-darkreader-inline-stroke=""></path><path fill="none" d="M530.6879687499999,275L538.9799682617187,275C547.2719677734374,275,563.8559667968749,275,580.4399658203124,275C597.0239648437499,275,613.6079638671874,275,632.9559627278645,291.6666666666667C652.3039615885417,308.3333333333333,674.4159602864584,341.6666666666667,693.7639591471353,358.3333333333333C713.1119580078125,375,729.69595703125,375,751.8079557291667,375C773.9199544270833,375,801.5599527994791,375,815.379951985677,375L829.199951171875,375" stroke="rgba(58, 187, 179, 1)" stroke-width="5" stroke-linecap="round" stroke-opacity="1" style="pointer-events: none; --darkreader-inline-fill:none; --darkreader-inline-stroke:#55cac3;" data-darkreader-inline-fill="" data-darkreader-inline-stroke=""></path><path fill="none" stroke="red" stroke-opacity="0" stroke-width="50" d="M530.6879687499999,275L538.9799682617187,275C547.2719677734374,275,563.8559667968749,275,580.4399658203124,275C597.0239648437499,275,613.6079638671874,275,632.9559627278645,291.6666666666667C652.3039615885417,308.3333333333333,674.4159602864584,341.6666666666667,693.7639591471353,358.3333333333333C713.1119580078125,375,729.69595703125,375,751.8079557291667,375C773.9199544270833,375,801.5599527994791,375,815.379951985677,375L829.199951171875,375" stroke-linecap="butt" style="--darkreader-inline-fill:none; --darkreader-inline-stroke:#ff1a1a;" data-darkreader-inline-fill="" data-darkreader-inline-stroke=""></path><path fill="none" d="M530.6879687499999,175L538.9799682617187,175C547.2719677734374,175,563.8559667968749,175,580.4399658203124,175C597.0239648437499,175,613.6079638671874,175,632.9559627278645,183.33333333333334C652.3039615885417,191.66666666666666,674.4159602864584,208.33333333333334,693.7639591471353,216.66666666666666C713.1119580078125,225,729.69595703125,225,751.8079557291667,225C773.9199544270833,225,801.5599527994791,225,815.379951985677,225L829.199951171875,225" stroke="rgba(239, 141, 51, 1)" stroke-width="5" stroke-linecap="round" stroke-opacity="1" style="pointer-events: none; --darkreader-inline-fill:none; --darkreader-inline-stroke:#f09541;" data-darkreader-inline-fill="" data-darkreader-inline-stroke=""></path><path fill="none" stroke="red" stroke-opacity="0" stroke-width="50" d="M530.6879687499999,175L538.9799682617187,175C547.2719677734374,175,563.8559667968749,175,580.4399658203124,175C597.0239648437499,175,613.6079638671874,175,632.9559627278645,183.33333333333334C652.3039615885417,191.66666666666666,674.4159602864584,208.33333333333334,693.7639591471353,216.66666666666666C713.1119580078125,225,729.69595703125,225,751.8079557291667,225C773.9199544270833,225,801.5599527994791,225,815.379951985677,225L829.199951171875,225" stroke-linecap="butt" style="--darkreader-inline-fill:none; --darkreader-inline-stroke:#ff1a1a;" data-darkreader-inline-fill="" data-darkreader-inline-stroke=""></path><path fill="none" d="M696.527958984375,275L704.8199584960938,275C713.1119580078125,275,729.69595703125,275,751.8079557291667,275C773.9199544270833,275,801.5599527994791,275,815.379951985677,275L829.199951171875,275" stroke="rgba(89, 158, 56, 1)" stroke-width="5" stroke-linecap="round" stroke-opacity="1" style="pointer-events: none; --darkreader-inline-fill:none; --darkreader-inline-stroke:#8aca6b;" data-darkreader-inline-fill="" data-darkreader-inline-stroke=""></path><path fill="none" stroke="red" stroke-opacity="0" stroke-width="50" d="M696.527958984375,275L704.8199584960938,275C713.1119580078125,275,729.69595703125,275,751.8079557291667,275C773.9199544270833,275,801.5599527994791,275,815.379951985677,275L829.199951171875,275" stroke-linecap="butt" style="--darkreader-inline-fill:none; --darkreader-inline-stroke:#ff1a1a;" data-darkreader-inline-fill="" data-darkreader-inline-stroke=""></path><g transform="translate(248.7599853515625, 75)" style="pointer-events: none;"><circle r="19.5" cy="7.2" fill="rgba(0, 0, 0, .2)" style="--darkreader-inline-fill:rgba(0, 0, 0, 0.2);" data-darkreader-inline-fill=""></circle><circle r="18" fill="#222429" stroke="#4861EC" stroke-width="3" style="--darkreader-inline-fill:#1c1f20; --darkreader-inline-stroke:#5193ed;" data-darkreader-inline-fill="" data-darkreader-inline-stroke=""></circle><text text-anchor="middle" y="4" fill="#e0e4e4" font-size="11px">93%</text></g><g transform="translate(414.5999755859375, 25)" style="pointer-events: none;"><circle r="19.5" cy="7.2" fill="rgba(0, 0, 0, .2)" style="--darkreader-inline-fill:rgba(0, 0, 0, 0.2);" data-darkreader-inline-fill=""></circle><circle r="18" fill="#222429" stroke="#4861EC" stroke-width="3" style="--darkreader-inline-fill:#1c1f20; --darkreader-inline-stroke:#5193ed;" data-darkreader-inline-fill="" data-darkreader-inline-stroke=""></circle><text text-anchor="middle" y="4" fill="#e0e4e4" font-size="11px">87%</text></g><g transform="translate(580.4399658203124, 25)" style="pointer-events: none;"><circle r="19.5" cy="7.2" fill="rgba(0, 0, 0, .2)" style="--darkreader-inline-fill:rgba(0, 0, 0, 0.2);" data-darkreader-inline-fill=""></circle><circle r="18" fill="#222429" stroke="#4861EC" stroke-width="3" style="--darkreader-inline-fill:#1c1f20; --darkreader-inline-stroke:#5193ed;" data-darkreader-inline-fill="" data-darkreader-inline-stroke=""></circle><text text-anchor="middle" y="4" fill="#e0e4e4" font-size="11px">86%</text></g><g transform="translate(746.2799560546875, 25)" style="pointer-events: none;"><circle r="19.5" cy="7.2" fill="rgba(0, 0, 0, .2)" style="--darkreader-inline-fill:rgba(0, 0, 0, 0.2);" data-darkreader-inline-fill=""></circle><circle r="18" fill="#222429" stroke="#4861EC" stroke-width="3" style="--darkreader-inline-fill:#1c1f20; --darkreader-inline-stroke:#5193ed;" data-darkreader-inline-fill="" data-darkreader-inline-stroke=""></circle><text text-anchor="middle" y="4" fill="#e0e4e4" font-size="11px">89%</text></g><g transform="translate(82.91999511718751, 25)" style="pointer-events: none;"><circle r="19.5" cy="7.2" fill="rgba(0, 0, 0, .2)" style="--darkreader-inline-fill:rgba(0, 0, 0, 0.2);" data-darkreader-inline-fill=""></circle><circle r="18" fill="#222429" stroke="#41c7c7" stroke-width="3" style="--darkreader-inline-fill:#1c1f20; --darkreader-inline-stroke:#53cccc;" data-darkreader-inline-fill="" data-darkreader-inline-stroke=""></circle><text text-anchor="middle" y="4" fill="#e0e4e4" font-size="11px">91%</text></g><g transform="translate(248.7599853515625, 25)" style="pointer-events: none;"><circle r="19.5" cy="7.2" fill="rgba(0, 0, 0, .2)" style="--darkreader-inline-fill:rgba(0, 0, 0, 0.2);" data-darkreader-inline-fill=""></circle><circle r="18" fill="#222429" stroke="#41c7c7" stroke-width="3" style="--darkreader-inline-fill:#1c1f20; --darkreader-inline-stroke:#53cccc;" data-darkreader-inline-fill="" data-darkreader-inline-stroke=""></circle><text text-anchor="middle" y="4" fill="#e0e4e4" font-size="11px">93%</text></g><g transform="translate(414.5999755859375, 75)" style="pointer-events: none;"><circle r="19.5" cy="7.2" fill="rgba(0, 0, 0, .2)" style="--darkreader-inline-fill:rgba(0, 0, 0, 0.2);" data-darkreader-inline-fill=""></circle><circle r="18" fill="#222429" stroke="#41c7c7" stroke-width="3" style="--darkreader-inline-fill:#1c1f20; --darkreader-inline-stroke:#53cccc;" data-darkreader-inline-fill="" data-darkreader-inline-stroke=""></circle><text text-anchor="middle" y="4" fill="#e0e4e4" font-size="11px">84%</text></g><g transform="translate(580.4399658203124, 75)" style="pointer-events: none;"><circle r="19.5" cy="7.2" fill="rgba(0, 0, 0, .2)" style="--darkreader-inline-fill:rgba(0, 0, 0, 0.2);" data-darkreader-inline-fill=""></circle><circle r="18" fill="#222429" stroke="#41c7c7" stroke-width="3" style="--darkreader-inline-fill:#1c1f20; --darkreader-inline-stroke:#53cccc;" data-darkreader-inline-fill="" data-darkreader-inline-stroke=""></circle><text text-anchor="middle" y="4" fill="#e0e4e4" font-size="11px">82%</text></g><g transform="translate(746.2799560546875, 125)" style="pointer-events: none;"><circle r="19.5" cy="7.2" fill="rgba(0, 0, 0, .2)" style="--darkreader-inline-fill:rgba(0, 0, 0, 0.2);" data-darkreader-inline-fill=""></circle><circle r="18" fill="#222429" stroke="#41c7c7" stroke-width="3" style="--darkreader-inline-fill:#1c1f20; --darkreader-inline-stroke:#53cccc;" data-darkreader-inline-fill="" data-darkreader-inline-stroke=""></circle><text text-anchor="middle" y="4" fill="#e0e4e4" font-size="11px">82%</text></g><g transform="translate(82.91999511718751, 75)" style="pointer-events: none;"><circle r="19.5" cy="7.2" fill="rgba(0, 0, 0, .2)" style="--darkreader-inline-fill:rgba(0, 0, 0, 0.2);" data-darkreader-inline-fill=""></circle><circle r="18" fill="#222429" stroke="#F649A7" stroke-width="3" style="--darkreader-inline-fill:#1c1f20; --darkreader-inline-stroke:#f64faa;" data-darkreader-inline-fill="" data-darkreader-inline-stroke=""></circle><text text-anchor="middle" y="4" fill="#e0e4e4" font-size="11px">85%</text></g><g transform="translate(248.7599853515625, 125)" style="pointer-events: none;"><circle r="19.5" cy="7.2" fill="rgba(0, 0, 0, .2)" style="--darkreader-inline-fill:rgba(0, 0, 0, 0.2);" data-darkreader-inline-fill=""></circle><circle r="18" fill="#222429" stroke="#F649A7" stroke-width="3" style="--darkreader-inline-fill:#1c1f20; --darkreader-inline-stroke:#f64faa;" data-darkreader-inline-fill="" data-darkreader-inline-stroke=""></circle><text text-anchor="middle" y="4" fill="#e0e4e4" font-size="11px">86%</text></g><g transform="translate(414.5999755859375, 125)" style="pointer-events: none;"><circle r="19.5" cy="7.2" fill="rgba(0, 0, 0, .2)" style="--darkreader-inline-fill:rgba(0, 0, 0, 0.2);" data-darkreader-inline-fill=""></circle><circle r="18" fill="#222429" stroke="#F649A7" stroke-width="3" style="--darkreader-inline-fill:#1c1f20; --darkreader-inline-stroke:#f64faa;" data-darkreader-inline-fill="" data-darkreader-inline-stroke=""></circle><text text-anchor="middle" y="4" fill="#e0e4e4" font-size="11px">79%</text></g><g transform="translate(580.4399658203124, 125)" style="pointer-events: none;"><circle r="19.5" cy="7.2" fill="rgba(0, 0, 0, .2)" style="--darkreader-inline-fill:rgba(0, 0, 0, 0.2);" data-darkreader-inline-fill=""></circle><circle r="18" fill="#222429" stroke="#F649A7" stroke-width="3" style="--darkreader-inline-fill:#1c1f20; --darkreader-inline-stroke:#f64faa;" data-darkreader-inline-fill="" data-darkreader-inline-stroke=""></circle><text text-anchor="middle" y="4" fill="#e0e4e4" font-size="11px">78%</text></g><g transform="translate(746.2799560546875, 175)" style="pointer-events: none;"><circle r="19.5" cy="7.2" fill="rgba(0, 0, 0, .2)" style="--darkreader-inline-fill:rgba(0, 0, 0, 0.2);" data-darkreader-inline-fill=""></circle><circle r="18" fill="#222429" stroke="#F649A7" stroke-width="3" style="--darkreader-inline-fill:#1c1f20; --darkreader-inline-stroke:#f64faa;" data-darkreader-inline-fill="" data-darkreader-inline-stroke=""></circle><text text-anchor="middle" y="4" fill="#e0e4e4" font-size="11px">80%</text></g><g transform="translate(82.91999511718751, 125)" style="pointer-events: none;"><circle r="19.5" cy="7.2" fill="rgba(0, 0, 0, .2)" style="--darkreader-inline-fill:rgba(0, 0, 0, 0.2);" data-darkreader-inline-fill=""></circle><circle r="18" fill="#222429" stroke="#FE6A6A" stroke-width="3" style="--darkreader-inline-fill:#1c1f20; --darkreader-inline-stroke:#fe6464;" data-darkreader-inline-fill="" data-darkreader-inline-stroke=""></circle><text text-anchor="middle" y="4" fill="#e0e4e4" font-size="11px">58%</text></g><g transform="translate(248.7599853515625, 225)" style="pointer-events: none;"><circle r="19.5" cy="7.2" fill="rgba(0, 0, 0, .2)" style="--darkreader-inline-fill:rgba(0, 0, 0, 0.2);" data-darkreader-inline-fill=""></circle><circle r="18" fill="#222429" stroke="#FE6A6A" stroke-width="3" style="--darkreader-inline-fill:#1c1f20; --darkreader-inline-stroke:#fe6464;" data-darkreader-inline-fill="" data-darkreader-inline-stroke=""></circle><text text-anchor="middle" y="4" fill="#e0e4e4" font-size="11px">42%</text></g><g transform="translate(414.5999755859375, 225)" style="pointer-events: none;"><circle r="19.5" cy="7.2" fill="rgba(0, 0, 0, .2)" style="--darkreader-inline-fill:rgba(0, 0, 0, 0.2);" data-darkreader-inline-fill=""></circle><circle r="18" fill="#222429" stroke="#FE6A6A" stroke-width="3" style="--darkreader-inline-fill:#1c1f20; --darkreader-inline-stroke:#fe6464;" data-darkreader-inline-fill="" data-darkreader-inline-stroke=""></circle><text text-anchor="middle" y="4" fill="#e0e4e4" font-size="11px">34%</text></g><g transform="translate(580.4399658203124, 325)" style="pointer-events: none;"><circle r="19.5" cy="7.2" fill="rgba(0, 0, 0, .2)" style="--darkreader-inline-fill:rgba(0, 0, 0, 0.2);" data-darkreader-inline-fill=""></circle><circle r="18" fill="#222429" stroke="#FE6A6A" stroke-width="3" style="--darkreader-inline-fill:#1c1f20; --darkreader-inline-stroke:#fe6464;" data-darkreader-inline-fill="" data-darkreader-inline-stroke=""></circle><text text-anchor="middle" y="4" fill="#e0e4e4" font-size="11px">28%</text></g><g transform="translate(746.2799560546875, 425)" style="pointer-events: none;"><circle r="19.5" cy="7.2" fill="rgba(0, 0, 0, .2)" style="--darkreader-inline-fill:rgba(0, 0, 0, 0.2);" data-darkreader-inline-fill=""></circle><circle r="18" fill="#222429" stroke="#FE6A6A" stroke-width="3" style="--darkreader-inline-fill:#1c1f20; --darkreader-inline-stroke:#fe6464;" data-darkreader-inline-fill="" data-darkreader-inline-stroke=""></circle><text text-anchor="middle" y="4" fill="#e0e4e4" font-size="11px">30%</text></g><g transform="translate(248.7599853515625, 175)" style="pointer-events: none;"><circle r="19.5" cy="7.2" fill="rgba(0, 0, 0, .2)" style="--darkreader-inline-fill:rgba(0, 0, 0, 0.2);" data-darkreader-inline-fill=""></circle><circle r="18" fill="#222429" stroke="#85EBA2" stroke-width="3" style="--darkreader-inline-fill:#1c1f20; --darkreader-inline-stroke:#7eea9c;" data-darkreader-inline-fill="" data-darkreader-inline-stroke=""></circle><text text-anchor="middle" y="4" fill="#e0e4e4" font-size="11px">51%</text></g><g transform="translate(414.5999755859375, 175)" style="pointer-events: none;"><circle r="19.5" cy="7.2" fill="rgba(0, 0, 0, .2)" style="--darkreader-inline-fill:rgba(0, 0, 0, 0.2);" data-darkreader-inline-fill=""></circle><circle r="18" fill="#222429" stroke="#85EBA2" stroke-width="3" style="--darkreader-inline-fill:#1c1f20; --darkreader-inline-stroke:#7eea9c;" data-darkreader-inline-fill="" data-darkreader-inline-stroke=""></circle><text text-anchor="middle" y="4" fill="#e0e4e4" font-size="11px">52%</text></g><g transform="translate(580.4399658203124, 225)" style="pointer-events: none;"><circle r="19.5" cy="7.2" fill="rgba(0, 0, 0, .2)" style="--darkreader-inline-fill:rgba(0, 0, 0, 0.2);" data-darkreader-inline-fill=""></circle><circle r="18" fill="#222429" stroke="#85EBA2" stroke-width="3" style="--darkreader-inline-fill:#1c1f20; --darkreader-inline-stroke:#7eea9c;" data-darkreader-inline-fill="" data-darkreader-inline-stroke=""></circle><text text-anchor="middle" y="4" fill="#e0e4e4" font-size="11px">41%</text></g><g transform="translate(746.2799560546875, 325)" style="pointer-events: none;"><circle r="19.5" cy="7.2" fill="rgba(0, 0, 0, .2)" style="--darkreader-inline-fill:rgba(0, 0, 0, 0.2);" data-darkreader-inline-fill=""></circle><circle r="18" fill="#222429" stroke="#85EBA2" stroke-width="3" style="--darkreader-inline-fill:#1c1f20; --darkreader-inline-stroke:#7eea9c;" data-darkreader-inline-fill="" data-darkreader-inline-stroke=""></circle><text text-anchor="middle" y="4" fill="#e0e4e4" font-size="11px">52%</text></g><g transform="translate(746.2799560546875, 75)" style="pointer-events: none;"><circle r="19.5" cy="7.2" fill="rgba(0, 0, 0, .2)" style="--darkreader-inline-fill:rgba(0, 0, 0, 0.2);" data-darkreader-inline-fill=""></circle><circle r="18" fill="#222429" stroke="#fbf34c" stroke-width="3" style="--darkreader-inline-fill:#1c1f20; --darkreader-inline-stroke:#fbf350;" data-darkreader-inline-fill="" data-darkreader-inline-stroke=""></circle><text text-anchor="middle" y="4" fill="#e0e4e4" font-size="11px">84%</text></g><g transform="translate(580.4399658203124, 275)" style="pointer-events: none;"><circle r="19.5" cy="7.2" fill="rgba(0, 0, 0, .2)" style="--darkreader-inline-fill:rgba(0, 0, 0, 0.2);" data-darkreader-inline-fill=""></circle><circle r="18" fill="#222429" stroke="#3ABBB3" stroke-width="3" style="--darkreader-inline-fill:#1c1f20; --darkreader-inline-stroke:#55cac3;" data-darkreader-inline-fill="" data-darkreader-inline-stroke=""></circle><text text-anchor="middle" y="4" fill="#e0e4e4" font-size="11px">33%</text></g><g transform="translate(746.2799560546875, 375)" style="pointer-events: none;"><circle r="19.5" cy="7.2" fill="rgba(0, 0, 0, .2)" style="--darkreader-inline-fill:rgba(0, 0, 0, 0.2);" data-darkreader-inline-fill=""></circle><circle r="18" fill="#222429" stroke="#3ABBB3" stroke-width="3" style="--darkreader-inline-fill:#1c1f20; --darkreader-inline-stroke:#55cac3;" data-darkreader-inline-fill="" data-darkreader-inline-stroke=""></circle><text text-anchor="middle" y="4" fill="#e0e4e4" font-size="11px">35%</text></g><g transform="translate(580.4399658203124, 175)" style="pointer-events: none;"><circle r="19.5" cy="7.2" fill="rgba(0, 0, 0, .2)" style="--darkreader-inline-fill:rgba(0, 0, 0, 0.2);" data-darkreader-inline-fill=""></circle><circle r="18" fill="#222429" stroke="#EF8D33" stroke-width="3" style="--darkreader-inline-fill:#1c1f20; --darkreader-inline-stroke:#f09541;" data-darkreader-inline-fill="" data-darkreader-inline-stroke=""></circle><text text-anchor="middle" y="4" fill="#e0e4e4" font-size="11px">74%</text></g><g transform="translate(746.2799560546875, 225)" style="pointer-events: none;"><circle r="19.5" cy="7.2" fill="rgba(0, 0, 0, .2)" style="--darkreader-inline-fill:rgba(0, 0, 0, 0.2);" data-darkreader-inline-fill=""></circle><circle r="18" fill="#222429" stroke="#EF8D33" stroke-width="3" style="--darkreader-inline-fill:#1c1f20; --darkreader-inline-stroke:#f09541;" data-darkreader-inline-fill="" data-darkreader-inline-stroke=""></circle><text text-anchor="middle" y="4" fill="#e0e4e4" font-size="11px">76%</text></g><g transform="translate(746.2799560546875, 275)" style="pointer-events: none;"><circle r="19.5" cy="7.2" fill="rgba(0, 0, 0, .2)" style="--darkreader-inline-fill:rgba(0, 0, 0, 0.2);" data-darkreader-inline-fill=""></circle><circle r="18" fill="#222429" stroke="#599E38" stroke-width="3" style="--darkreader-inline-fill:#1c1f20; --darkreader-inline-stroke:#8aca6b;" data-darkreader-inline-fill="" data-darkreader-inline-stroke=""></circle><text text-anchor="middle" y="4" fill="#e0e4e4" font-size="11px">70%</text></g></g></svg>