<?xml version="1.0" encoding="utf-8"?>
<!-- Generator: Adobe Illustrator 24.1.0, SVG Export Plug-In . SVG Version: 6.00 Build 0)  -->
<svg version="1.1" id="Layer_1" xmlns="http://www.w3.org/2000/svg" xmlns:xlink="http://www.w3.org/1999/xlink" x="0px" y="0px"
	 viewBox="0 0 24 24" style="enable-background:new 0 0 24 24;" xml:space="preserve">
<path d="M12,22c-3.3,0-5.92-2.23-6.08-5.19c-0.01-0.27,0.08-0.54,0.27-0.74c0.19-0.2,0.45-0.31,0.72-0.31
	c0.53,0,1.03,0.41,1.06,0.93c0.11,1.89,1.81,3.25,4.04,3.25c2.3,0,4.04-1.56,4.04-3.62c0-2.14-1.84-3.59-4.57-3.59
	c-0.55,0-1.02-0.44-1.02-0.99s0.44-1.06,0.99-1.06c2.45,0,4.08-1.34,4.08-3.34c0-1.95-1.46-3.3-3.55-3.3
	c-2.02,0-3.49,1.33-3.58,3.25C8.35,7.82,7.92,8.24,7.39,8.24c-0.27,0-0.56-0.11-0.75-0.31C6.45,7.73,6.32,7.47,6.33,7.2
	C6.48,4.19,8.84,2,11.96,2c3.19,0,5.6,2.3,5.6,5.35c0,1.81-0.84,3.34-2.27,4.28c1.76,0.97,2.8,2.66,2.8,4.69
	C18.09,19.61,15.53,22,12,22z"/>
<path d="M12.11,21.21c-2.84,0-5.01-1.83-5.14-4.3h0.07c0.14,2.43,2.27,4.23,5.07,4.23c2.9,0,5.08-2,5.08-4.66
	c0-2.72-2.31-4.62-5.61-4.62h-0.03V11.8h0.03c2.99,0,5.08-1.8,5.08-4.37c0-2.51-1.93-4.33-4.58-4.33c-2.59,0-4.49,1.76-4.61,4.23
	H7.39c0.12-2.5,2.05-4.3,4.68-4.3c2.7,0,4.65,1.85,4.65,4.4c0,1.99-1.19,3.52-3.19,4.09c-0.11,0.03-0.18,0.13-0.18,0.24
	c0,0.11,0.08,0.29,0.19,0.31c2.29,0.58,3.72,2.27,3.72,4.41C17.26,19.22,15.09,21.21,12.11,21.21z"/>
</svg>
