<?xml version="1.0" encoding="utf-8"?>
<!-- Generator: Adobe Illustrator 24.1.0, SVG Export Plug-In . SVG Version: 6.00 Build 0)  -->
<svg version="1.1" id="Layer_1" xmlns="http://www.w3.org/2000/svg" xmlns:xlink="http://www.w3.org/1999/xlink" x="0px" y="0px"
	 viewBox="0 0 24 24" style="enable-background:new 0 0 24 24;" xml:space="preserve">
<style type="text/css">
	.st0{fill:#2E3192;}
	.st1{fill:#E6E7E8;}
	.st2{fill:#BE1E2D;}
</style>
<g>
	<path class="st0" d="M13.87,5.13h5c0.62,0,1.14,0.14,1.58,0.38l-6.58,3.92V5.13z"/>
	<path class="st0" d="M21.89,7.56c0.07,0.32,0.11,0.65,0.11,1v1.56h-4.41L21.89,7.56"/>
	<path class="st0" d="M2.11,16.45C2.04,16.13,2,15.79,2,15.44v-1.56h4.43L2.11,16.45z"/>
	<path class="st0" d="M10.12,18.87h-5c-0.61,0-1.13-0.14-1.57-0.38l6.57-3.92V18.87z"/>
	<path class="st0" d="M3.58,5.49c0.43-0.23,0.94-0.37,1.55-0.37h5V9.4L3.58,5.49z"/>
	<path class="st0" d="M2,10.13V8.56C2,8.2,2.04,7.86,2.11,7.53l4.35,2.59H2z"/>
	<path class="st0" d="M20.47,18.48c-0.44,0.25-0.97,0.39-1.6,0.39h-5v-4.33L20.47,18.48z"/>
	<path class="st0" d="M22,13.87v1.56c0,0.34-0.04,0.67-0.1,0.98l-4.27-2.55H22z"/>
	<path class="st1" d="M17.63,13.87l4.27,2.55c-0.2,0.89-0.67,1.64-1.42,2.06l-6.6-3.94v4.33h-0.62v-5.62H22v0.62H17.63z"/>
	<path class="st1" d="M2,10.75v-0.62h4.46L2.11,7.53c0.21-0.89,0.7-1.62,1.46-2.04l6.55,3.91V5.13h0.62v5.62H2z"/>
	<path class="st1" d="M22,10.75h-8.75V5.13h0.62v4.31l6.58-3.92c0.76,0.42,1.24,1.16,1.44,2.05l-4.3,2.57H22V10.75z"/>
	<path class="st1" d="M10.12,18.87v-4.3L3.56,18.5c-0.76-0.42-1.24-1.15-1.45-2.05l4.32-2.58H2v-0.62h8.75v5.62H10.12z"/>
	<path class="st2" d="M13.25,13.25v5.62h-2.5v-5.62H2v-2.5h8.75V5.13h2.5v5.62H22v2.5H13.25z"/>
	<path class="st2" d="M8.86,13.87l-6.27,3.74c-0.13-0.2-0.24-0.42-0.33-0.65l5.17-3.09H8.86"/>
	<path class="st2" d="M21.71,6.97l-5.25,3.15h-1.45l6.35-3.82C21.5,6.51,21.62,6.73,21.71,6.97"/>
	<path class="st2" d="M20.97,18.13l-7.11-4.25l1.44,0l6.13,3.67C21.31,17.8,21.16,17.96,20.97,18.13"/>
	<path class="st2" d="M2.57,6.41c0.14-0.22,0.31-0.41,0.5-0.58l7.07,4.29H8.72L2.57,6.41z"/>
</g>
</svg>
