<?xml version="1.0" encoding="utf-8"?>
<!-- Generator: Adobe Illustrator 24.1.0, SVG Export Plug-In . SVG Version: 6.00 Build 0)  -->
<svg version="1.1" id="Layer_1" xmlns="http://www.w3.org/2000/svg" xmlns:xlink="http://www.w3.org/1999/xlink" x="0px" y="0px"
	 viewBox="0 0 24 24" style="enable-background:new 0 0 24 24;" xml:space="preserve">
<path d="M8.94,21.97c-0.55,0-1-0.45-1-1v-2.01l-1.03,2.4c-0.16,0.37-0.52,0.61-0.92,0.61s-0.85-0.24-1.01-0.61l-1.03-2.4v2.01
	c0,0.55-0.45,1-1,1s-1.02-0.45-1.02-1v-6.93c0-0.55,0.45-1,1-1c0.4,0,0.79,0.24,0.95,0.61l2.07,4.83l2.07-4.83
	c0.16-0.37,0.52-0.61,0.92-0.61c0.55,0,1.03,0.45,1.03,1v6.93c0,0.55-0.45,1-1,1H8.94z"/>
<path d="M8.94,20.97v-6.33c0-0.06-0.04-0.1-0.1-0.1c-0.04,0-0.1,0.02-0.12,0.06l-2.73,6.37H5.9L3.17,14.6
	c-0.02-0.04-0.05-0.06-0.09-0.06c-0.06,0-0.13,0.04-0.13,0.1v6.33H2.92v-6.93h0.03l2.88,6.73c0.02,0.04,0.05,0.06,0.09,0.06
	s0.1-0.02,0.12-0.06l2.88-6.73h0.03v6.93H8.94z"/>
<path d="M16.03,21.97c-0.42,0-0.8-0.27-0.94-0.66l-0.63-1.74h-1.93l-0.63,1.74c-0.14,0.4-0.52,0.66-0.94,0.66
	c-0.33,0-0.64-0.16-0.83-0.42c-0.19-0.27-0.25-0.61-0.14-0.91l2.48-6.93c0.14-0.4,0.52-0.66,0.94-0.66h0.17
	c0.42,0,0.8,0.27,0.94,0.66L17,20.64c0.11,0.31,0.06,0.65-0.12,0.91s-0.49,0.42-0.82,0.42H16.03z M13.75,17.54l-0.25-0.68
	l-0.25,0.68H13.75z"/>
<path d="M16.22,20.97l-0.84-2.34c-0.01-0.04-0.05-0.07-0.09-0.07h-3.2c-0.04,0-0.08,0.03-0.09,0.07l-0.84,2.34h-0.02l2.48-6.93h0.17
	l2.47,6.93H16.22z M13.7,14.13c-0.04,0-0.11,0.03-0.12,0.07l-1.51,4.22c-0.01,0.03-0.01,0.07,0.01,0.09
	c0.02,0.03,0.05,0.04,0.08,0.04h3.05c0.03,0,0.06-0.02,0.08-0.04s0.02-0.06,0.01-0.09l-1.51-4.22
	C13.78,14.15,13.74,14.13,13.7,14.13z"/>
<path d="M19.45,22.07c-0.77,0-1.49-0.28-1.98-0.78c-0.38-0.38-0.6-0.86-0.64-1.39c-0.02-0.28,0.08-0.55,0.26-0.75
	c0.19-0.2,0.46-0.32,0.73-0.32c0.52,0,0.98,0.4,1.02,0.93c0,0.02,0,0.05,0.06,0.11c0.08,0.09,0.27,0.18,0.54,0.18
	c0.24,0,0.6,0,0.6-0.87v-5.13c0-0.55,0.45-1,1-1s1.02,0.45,1.02,1v5.13C22.07,20.94,21.04,22.07,19.45,22.07z"/>
<path d="M19.45,21.07c-0.51,0-0.97-0.17-1.27-0.48c-0.21-0.21-0.33-0.47-0.35-0.75h0.02c0.02,0.28,0.14,0.53,0.34,0.74
	c0.3,0.3,0.76,0.47,1.25,0.47c0.48,0,1.59-0.18,1.6-1.87v-5.13h0.02v5.13C21.07,20.38,20.48,21.07,19.45,21.07z"/>
<path d="M12.94,11.01c-0.55,0-1-0.45-1-1V9.34H9.67c-0.55,0-1-0.45-1-1c0-0.19,0.05-0.44,0.15-0.59l3.25-5.24
	c0.19-0.3,0.51-0.47,0.85-0.47c0.11,0,0.21,0.02,0.32,0.05c0.41,0.14,0.72,0.53,0.72,0.96v4.27c0.5,0.05,0.89,0.48,0.89,0.99
	s-0.39,0.96-0.89,1.02v0.68c0,0.55-0.45,1-1,1H12.94z M11.94,7.32V6.58l-0.46,0.74H11.94z"/>
</svg>
