<?xml version="1.0" encoding="utf-8"?>
<!-- Generator: Adobe Illustrator 24.1.0, SVG Export Plug-In . SVG Version: 6.00 Build 0)  -->
<svg version="1.1" id="Layer_1" xmlns="http://www.w3.org/2000/svg" xmlns:xlink="http://www.w3.org/1999/xlink" x="0px" y="0px"
	 viewBox="0 0 24 24" style="enable-background:new 0 0 24 24;" xml:space="preserve">
<style type="text/css">
	.st0{stroke:#000000;stroke-width:2;stroke-linecap:round;stroke-linejoin:round;stroke-miterlimit:10;}
	.st1{fill:#FFFFFF;stroke:#000000;stroke-width:2;stroke-linecap:round;stroke-linejoin:round;stroke-miterlimit:10;}
</style>
<path d="M6,20c-0.3,0-0.59-0.14-0.78-0.37c-0.19-0.24-0.26-0.54-0.2-0.84l3-14C8.12,4.33,8.53,4,9,4h6c0.47,0,0.88,0.33,0.98,0.79
	l3,14c0.06,0.3-0.01,0.6-0.2,0.84C18.59,19.86,18.3,20,18,20H6z M18,22c0.91,0,1.76-0.41,2.33-1.11c0.57-0.71,0.79-1.62,0.6-2.51
	l-3-14C17.64,3,16.4,2,15,2H9C7.59,2,6.36,3,6.07,4.37l-3,14c-0.19,0.89,0.03,1.81,0.6,2.51S5.09,22,6,22H18z"/>
<line class="st0" x1="5" y1="15.07" x2="19" y2="15.07"/>
<circle class="st1" cx="14" cy="9" r="1"/>
<line class="st1" x1="14.52" y1="6.91" x2="12" y2="17"/>
</svg>
