<?xml version="1.0" encoding="utf-8"?>
<!-- Generator: Adobe Illustrator 24.1.0, SVG Export Plug-In . SVG Version: 6.00 Build 0)  -->
<svg version="1.1" id="Layer_1" xmlns="http://www.w3.org/2000/svg" xmlns:xlink="http://www.w3.org/1999/xlink" x="0px" y="0px"
	 viewBox="0 0 24 24" style="enable-background:new 0 0 24 24;" xml:space="preserve">
<path d="M9.03,21.93c-0.55,0-1-0.45-1-1v-3.49c0-0.7-0.22-0.7-0.45-0.7c-0.34,0-0.44,0.16-0.5,0.31c0,0.01-0.01,0.02-0.01,0.03
	c-0.03,0.1-0.05,0.23-0.05,0.36v3.49c0,0.55-0.45,1-1,1H6c-0.55,0-1-0.45-1-1v-3.49c0-0.7-0.22-0.7-0.45-0.7
	c-0.32,0-0.41,0.15-0.45,0.2c-0.01,0.01-0.02,0.04-0.03,0.05c-0.06,0.12-0.09,0.27-0.09,0.45v3.49c0,0.55-0.45,1-1,1H2.96
	c-0.55,0-1-0.45-1-1v-5.14c0-0.55,0.45-1,1-1c0.19,0,0.36,0.05,0.51,0.14c0.32-0.14,0.68-0.21,1.07-0.21c0.58,0,1.09,0.17,1.49,0.47
	c0.42-0.3,0.95-0.47,1.54-0.47c1.5,0,2.47,1.07,2.47,2.72v3.49c0,0.55-0.45,1-1,1H9.03z"/>
<path d="M12.98,21.93c-0.55,0-1-0.45-1-1v-5.14c0-0.55,0.45-1,1-1c0.55,0,1.02,0.45,1.02,1v5.14c0,0.55-0.45,1-1,1H12.98z
	 M12.99,13.98c-0.62,0-1.12-0.5-1.12-1.12s0.5-1.12,1.12-1.12s1.12,0.5,1.12,1.12S13.61,13.98,12.99,13.98z"/>
<path d="M20.96,21.93c-0.55,0-1-0.45-1-1v-3.49c0-0.45-0.51-0.7-0.96-0.7c-0.29,0-0.75,0.11-0.87,0.32c0,0,0,0.01-0.01,0.01
	c-0.06,0.1-0.09,0.23-0.09,0.37v3.49c0,0.55-0.45,1-1,1h-0.02c-0.55,0-1-0.45-1-1v-5.14c0-0.55,0.45-1,1-1
	c0.21,0,0.4,0.06,0.57,0.17c0.35-0.16,0.99-0.24,1.42-0.24c1.58,0,2.99,1.15,2.99,2.72v3.49c0,0.55-0.45,1-1,1H20.96z"/>
<path d="M13.05,10.96c-0.55,0-1-0.45-1-1V9.29H9.78c-0.55,0-1-0.45-1-1c0-0.19,0.05-0.44,0.15-0.59l3.25-5.24
	c0.19-0.3,0.51-0.47,0.85-0.47c0.11,0,0.21,0.02,0.32,0.05c0.41,0.14,0.72,0.53,0.72,0.96v4.27c0.5,0.05,0.89,0.48,0.89,0.99
	s-0.39,0.96-0.89,1.02v0.68c0,0.55-0.45,1-1,1H13.05z M12.05,7.26V6.52l-0.46,0.74H12.05z"/>
</svg>
