<?xml version="1.0" encoding="utf-8"?>
<!-- Generator: Adobe Illustrator 24.1.0, SVG Export Plug-In . SVG Version: 6.00 Build 0)  -->
<svg version="1.1" id="Layer_1" xmlns="http://www.w3.org/2000/svg" xmlns:xlink="http://www.w3.org/1999/xlink" x="0px" y="0px"
	 viewBox="0 0 24 24" style="enable-background:new 0 0 24 24;" xml:space="preserve">
<path d="M11.92,22c-0.75,0-1.37-0.61-1.37-1.37c0-0.76,0.61-1.37,1.37-1.37c0.76,0,1.37,0.61,1.37,1.37
	C13.29,21.39,12.68,22,11.92,22z M11.91,16.5c-0.55,0-1-0.45-1-1v-0.97c0-2.13,1-3.25,2.73-4.47c1.74-1.23,2.07-1.96,2.07-2.88
	c0-1.82-1.4-3.14-3.32-3.14c-1.9,0-3.35,1.38-3.46,3.28c-0.03,0.53-0.47,0.95-1,0.95c-0.27,0-0.55-0.11-0.74-0.31
	C7,7.74,6.89,7.48,6.9,7.2C7.06,4.24,9.42,2,12.39,2c3.05,0,5.35,2.22,5.35,5.17c0,2.02-1.12,3.23-2.93,4.54
	c-1.61,1.16-1.86,1.69-1.86,2.82v0.97c0,0.55-0.45,1-1,1H11.91z"/>
</svg>
